# xmcd
#
# Track frame offsets: 
#        150
#        13569
#        27497
#        39149
#        52911
#        64321
#        75751
#        87832
#        101168
#        114887
#        128775
#        140406
#        154227
#        167957
#        182614
#        196543
#        209794
#        223113
#        236829
#        249648
#        262757
#        277529
#
# Disc length: 3871 seconds
#
# Revision: 1
# Processed by: cddbd v1.5.2PL0 Copyright (c) Steve Scherf et al.
# Submitted via: ExactAudioCopyFreeDBPlugin 1.0
#
DISCID=230f1d16
DTITLE=Benny Carter - 2004 - Benny Carter - CD2 (Classic Jazz Archive)
DYEAR=2004
DGENRE=Jazz
TTITLE0=Nagasaki
TTITLE1=Theres a Small Hotel
TTITLE2=I'm in The Mood For Swing
TTITLE3=Black Bottom
TTITLE4=New Street Swing
TTITLE5=Rambler's Rhythm
TTITLE6=I'll Never Give In
TTITLE7=Skip It
TTITLE8=Lazy Afternoon
TTITLE9=I Ain't Got Nobody
TTITLE10=Blues In My Heart
TTITLE11=Mighty Like The Blues
TTITLE12=I'm Coming, Virginia
TTITLE13=Farewell Blues
TTITLE14=Blue Light Blues
TTITLE15=Savoy Stampede
TTITLE16=Melancholy Lullaby
TTITLE17=Love For Sale
TTITLE18=Hurry, Hurry!
TTITLE19=Just You, Just Me
TTITLE20=Prelude To A Kiss
TTITLE21=Diga Diga Doo
EXTD=
EXTT0=
EXTT1=
EXTT2=
EXTT3=
EXTT4=
EXTT5=
EXTT6=
EXTT7=
EXTT8=
EXTT9=
EXTT10=
EXTT11=
EXTT12=
EXTT13=
EXTT14=
EXTT15=
EXTT16=
EXTT17=
EXTT18=
EXTT19=
EXTT20=
EXTT21=
PLAYORDER=
